<?xml version="1.0" encoding="UTF-8"?>
<svg xmlns="http://www.w3.org/2000/svg" xmlns:xlink="http://www.w3.org/1999/xlink" id="Layer_2" data-name="Layer 2" viewBox="0 0 574 610.99">
  <defs>
    <style>
      .cls-1 {
        opacity: .08;
      }

      .cls-1, .cls-2, .cls-3 {
        fill: #0080a8;
      }

      .cls-2 {
        opacity: .07;
      }

      .cls-3 {
        opacity: .06;
      }

      .cls-4 {
        fill: #eefdff;
      }

      .cls-5, .cls-6, .cls-7 {
        fill: #fff;
      }

      .cls-8 {
        fill: #9fce80;
      }

      .cls-9 {
        fill: #daf3f7;
      }

      .cls-10 {
        fill: #c5e8ef;
      }

      .cls-11, .cls-12 {
        fill: #368409;
      }

      .cls-13 {
        fill: url(#radial-gradient-2);
        opacity: .82;
      }

      .cls-14 {
        fill: #327f05;
        stroke: #a7d18c;
        stroke-miterlimit: 10;
        stroke-width: .5px;
      }

      .cls-15 {
        opacity: .17;
      }

      .cls-15, .cls-16 {
        fill: #00538c;
      }

      .cls-17 {
        fill: url(#radial-gradient);
        opacity: .85;
      }

      .cls-6 {
        opacity: .61;
      }

      .cls-12 {
        opacity: .5;
      }

      .cls-7 {
        opacity: .75;
      }

      .cls-16 {
        opacity: .4;
      }

      .cls-18 {
        fill: #334070;
        opacity: .37;
      }

      .cls-19 {
        fill: #0067ad;
        opacity: .65;
      }
    </style>
    <radialGradient id="radial-gradient" cx="220.49" cy="103.56" fx="220.49" fy="103.56" r="125.36" gradientTransform="translate(344.05 -165.65) rotate(72.76) scale(1 1.91)" gradientUnits="userSpaceOnUse">
      <stop offset=".04" stop-color="#91c3ed"></stop>
      <stop offset=".19" stop-color="#bae3ff"></stop>
      <stop offset=".33" stop-color="#d2efff"></stop>
      <stop offset="1" stop-color="#d2efff"></stop>
    </radialGradient>
    <radialGradient id="radial-gradient-2" cx="318.83" cy="300.42" fx="318.83" fy="300.42" r="314.86" gradientTransform="translate(93.57 -62.61) rotate(15.27)" gradientUnits="userSpaceOnUse">
      <stop offset=".02" stop-color="#fff"></stop>
      <stop offset=".87" stop-color="#fff" stop-opacity="0"></stop>
      <stop offset="1" stop-color="#fff" stop-opacity=".8"></stop>
    </radialGradient>
  </defs>
  <g id="Layer_7_copy" data-name="Layer 7 copy">
    <path class="cls-12" d="M281.27,59.07c-4.38,2.49-9.01,4.47-13.55,6.62-2.86,1.36-5.72,2.74-8.4,4.46-.65,.41-1.31,.8-1.98,1.18-.76,.43-1.69,.37-2.2-.12-.43-.41-.51-.92-.42-1.52,.5-3.17,1.55-6.17,3.12-9.03,2.12-3.85,4.99-7.14,8.27-10.1,4.03-3.64,8.48-6.74,13.01-9.72,.29-.19,.62-.33,.87-.65-.24-.17-.49-.06-.72-.02-7.02,1.04-13.88,2.86-20.63,5.21-1.05,.37-1.76,1.16-2.56,1.82-3.38,2.81-6.9,5.45-10.64,7.76-4.11,2.54-8.42,4.65-13.14,5.71-3.69,.83-7.4,.99-11.12,.91-3.87-.09-7.71-.38-11.59-.4-2.74-.01-5.48,.11-8.21,.6-.72,.13-1.38,.07-1.98-.29-.14-.2-.27-.4-.41-.6-.14-.77,.08-1.47,.56-2.11,.21-.28,.4-.57,.61-.85,2.06-2.76,4.32-5.36,6.73-7.85,.23-.24,.47-.46,.7-.69,30.79-8.31,61.77-11.13,91.91-9.07-1.65,2.69-3.42,5.3-5.39,7.78-2.02,2.53-4.22,4.89-6.76,6.92-1.91,1.52-3.94,2.86-6.07,4.07Zm84.17,26.48c7.13-1.33,13.74-4.04,19.91-7.95,.59-.37,1.02-.44,1.61-.07,3.42,2.19,6.91,4.27,10.46,6.27,6.81,3.84,13.83,7.29,21.27,9.93,5.31,1.88,10.75,3.34,16.42,4.05,3.61,.46,7.24,.62,10.91,.41,.49-.17,1.53-1.07,2.54-2.17-1.74-1.31-3.49-2.6-5.26-3.87-5.39,.21-10.68-.48-15.91-1.73-.34-.08-.65-.21-.85-.5-.33-.48-.78-.84-1.2-1.24-3.1-2.96-6-6.09-8.76-9.35-1.51-1.78-2.92-3.63-4.4-5.43-.34-.42-.44-.82-.32-1.32-8.38-4.48-16.99-8.52-25.8-12.12,1.59,3.42,3.48,6.67,6.06,9.48,2.08,2.26,4.48,4.09,7.31,5.38,2.23,1.02,4.6,1.62,7.07,1.91,.59,.07,1.02,.29,1.41,.74,1.82,2.15,3.75,4.2,5.78,6.17,.79,.77,1.59,1.53,2.44,2.35-.35,.06-.52-.09-.71-.17-7.04-2.94-13.67-6.58-20.12-10.51-8.67-5.28-16.98-11.08-25.38-16.74-.57-.38-.9-.86-1.07-1.51-.32-1.2-.45-2.42-.46-3.67-17.08-5.69-34.78-9.74-52.86-12.04,3.98,.91,7.9,2.02,11.78,3.29,.28,.09,.62,.11,.81,.47-.28,.35-.71,.39-1.08,.5-3.42,1.02-6.86,2-10.27,3.06-2.75,.85-5.41,1.97-7.87,3.51-2.69,1.68-5.02,3.77-7.1,6.14-3.81,4.34-6.46,9.28-8.34,14.61-.23,.65-.45,1.31-.66,1.96-.26,.81,.02,1.47,.61,1.98,.58,.5,1.25,.4,1.93,0,.58-.34,1.17-.66,1.77-.97,3.19-1.66,6.47-3.09,9.81-4.4,5.06-1.98,10.2-3.76,15.19-5.95,2.29-1,4.57-2.04,6.67-3.4,4.49-2.92,7.6-6.9,9.43-11.82,.11-.29,.2-.6,.31-.89,.11-.28,.32-.39,.61-.28,.17,.06,.35,.13,.52,.2,2.76,1.21,5.49,2.48,8.18,3.84,5.1,2.57,10.07,5.34,14.94,8.28,4.11,2.48,8.14,5.07,12.15,7.7,.2,.13,.51,.22,.54,.63-.42-.02-.79-.01-1.16-.05-2.9-.31-5.81-.45-8.74-.44-4.75,.03-9.45,.56-14.09,1.86-3.62,1.01-7.02,2.56-10.23,4.53-1.73,1.06-3.29,2.34-4.79,3.69-1.03,.93-.88,2.23,.28,2.85,.27,.14,.56,.25,.85,.36,3.91,1.47,7.96,2.5,12.18,2.98,5.23,.6,10.46,.42,15.72-.56Z"></path>
    <path class="cls-11" d="M443.31,92.17c2.12-.08,4.26-.29,6.41-.67,2.64-.47,.81,2.4-1.15,4.54-1.74-1.31-3.49-2.6-5.26-3.87Zm-67.12-58.11c1.64,3.56,2.89,7.28,4.15,10.99,1.54,4.58,3,9.19,4.92,13.63,.26,.6,.53,1.2,.81,1.79,8.81,3.61,17.42,7.65,25.8,12.12,.02-.09,.04-.18,.08-.28,.94-2.36,1.11-4.79,.81-7.23-.42-3.43-1.71-6.53-3.49-9.42-.49-.8-.97-1.59-1.32-2.48-.51-1.3-1.18-2.54-2.02-3.65-1.11-1.47-2.37-2.83-3.64-4.17-5.28-5.53-11.26-10.17-18.31-13.46-2.12-.99-4.3-1.84-6.56-2.51-.78-.24-1.5-.1-2.07,.56-.57,.67-.54,1.36-.17,2.07,.35,.67,.69,1.35,1.01,2.04Zm-76.69,6.25s.06-.1,.09-.15c.3-.49,.6-.72,1.22-.64,1.42,.19,2.87,.28,4.29,.46,3.53,.46,7,1.1,10.43,1.89,18.08,2.3,35.78,6.35,52.86,12.04,0-.02,0-.04,0-.06-.02-2.13,.17-4.27,.52-6.38,.86-5.25,.29-10.25-1.49-15.12-1.55-4.25-3.76-8.14-6.16-11.92-1.15-1.81-2.38-3.58-3.71-5.27-1.52-1.93-3.11-3.8-4.93-5.45-2.46-2.23-5.19-4.04-8.5-4.93-1.23-.33-2.5-.54-3.8-.51-1.33,.03-2.11,1.01-1.84,2.27,.04,.18,.1,.35,.16,.52,.71,1.88,1.29,3.8,1.82,5.74,1.2,4.35,2.06,8.79,3.14,13.17,1.15,4.69,2.51,9.29,4.72,13.58,1.59,3.07,3.3,6.07,5.5,8.75,.16,.2,.35,.39,.41,.7-.38-.03-.62-.23-.88-.38-4.63-2.72-9.5-4.98-14.56-6.9-.66-.25-.94-.66-1.1-1.3-1.38-5.65-3.31-11.07-6.1-16.15-1.67-3.04-3.61-5.88-5.9-8.48-3.67-4.16-8.04-7.47-13.13-9.88-4.23-1.99-8.72-3.25-13.41-3.96-.93-.14-1.62,.21-2.01,.94-.39,.74-.27,1.42,.35,2.1,1.06,1.16,2.15,2.3,3.16,3.51,2.41,2.88,4.77,5.8,7.02,8.8,.73,.97,1.45,1.94,2.21,2.89,1.96,2.43,3.82,4.92,5.82,7.32,1.77,2.12,3.58,4.19,5.5,6.17,.99,1.02,2,2,3.01,3.01-.18,.17-.33,.08-.46,.04-3.2-.88-6.43-1.66-9.69-2.33-5.99-1.23-12.04-2.09-18.2-2.4-1.07-.05-1.63-.46-2.06-1.33-1.12-2.26-2.1-4.57-3.02-6.92-.91-2.32-1.88-4.61-3.14-6.76-1.45-2.47-3.31-4.63-5.47-6.52-4.59-4.02-9.91-6.88-15.79-8.8-3.31-1.08-6.74-1.68-10.3-1.64-3.12,.03-6.16,.58-9.14,1.63-.42,.29-.85,.58-1.27,.87-.42,1.27-.25,1.8,.82,2.49,4.56,2.91,8.5,6.5,12.14,10.42,2.85,3.06,5.53,6.26,8.29,9.4,2.18,2.48,4.33,4.99,6.89,7.11,.4,.33,.79,.66,1.19,1,.04,.03,.03,.11,.05,.19-.28,.23-.64,.23-.97,.3-3.18,.67-6.32,1.48-9.42,2.5-.78,.26-1.36,.15-2.02-.25-3.76-2.31-7.81-3.97-12.29-4.67-5.05-.79-10.08-.36-15.09,1.03-3.92,1.09-7.65,2.67-11.21,4.69-2.09,1.18-4.17,2.39-6.12,3.81-3.67,2.69-7.13,5.62-10.33,8.84,30.79-8.31,61.77-11.13,91.91-9.07Z"></path>
  </g>
  <g id="Layer_4" data-name="Layer 4">
    <path class="cls-18" d="M144.11,74.33c-.06,.03-.11,.06-.17,.09,0,0,0,0,.01,0,.05-.03,.1-.06,.16-.09ZM27.13,199.34s-.01,.03-.02,.04c.24-.51,.48-1.03,.73-1.54-.24,.5-.48,1-.71,1.51Zm-6.73,207.55c-11.29-21.96-18.16-45.84-19.67-71.03-.03-.51-.05-1.02-.08-1.53,1.52,25.18,8.39,49.06,19.67,71.01-.92-19.62,3.59-39.83,12.91-59.74-11.47-23.97-18.29-48.48-19.86-72.47C4.16,292.89-.36,313.07,.57,332.87c.02,.48,.05,.96,.08,1.44,0,0,0-.02,0-.03-.03-.47-.05-.93-.07-1.4,0,.13,0,.26,.01,.39-.02-.32-.03-.63-.04-.95,0-.14-.02-.29-.02-.43,0,.14,.02,.28,.02,.42-.03-.71-.07-1.43-.1-2.14-.79-19.69,3.77-39.57,12.81-58.96-1.26-23.39,2.52-46.24,11.91-67.55-.6,1.27-1.18,2.54-1.73,3.81,.46-1.05,.92-2.1,1.39-3.14,.29-.64,.6-1.27,.89-1.91,.22-.49,.43-.99,.66-1.48,.24-.52,.49-1.04,.74-1.57-.18,.38-.34,.77-.51,1.16,8.67-17.89,21.43-34.91,37.3-50.57,4.48-11.45,10.95-21.58,19.52-30.04,.69-.68,1.38-1.35,2.07-2.03-.19,.19-.38,.37-.57,.56-8.57,8.47-15.03,18.59-19.51,30.03,16.78-16.27,36.94-31.05,59.41-43.81,2.51-13.77,7.99-23.69,16.66-28.82-.11,.06-.23,.13-.34,.19,.17-.1,.34-.2,.5-.29,.08-.05,.15-.1,.23-.15,.15-.08,.3-.17,.45-.25,.04-.02,.09-.05,.13-.08,.11-.06,.23-.13,.34-.19,.38-.22,.77-.43,1.15-.65-.05,.03-.09,.06-.13,.08,16.95-9.46,35.38-17.24,54.47-23.08,.08-.16,.17-.27,.28-.31,.78-.24,1.56-.47,2.34-.71-.12,.04-.21,.16-.29,.32,19.02-5.65,38.66-9.4,58.11-11.02-.26,0-.52,0-.78,.02,.84-.07,1.67-.13,2.51-.19,.26-.02,.52,0,.78-.02,4.9-.36,9.79-.6,14.65-.68,.51,0,1.02,0,1.53,0-5.05,.07-10.13,.3-15.23,.67,7.83,.25,15.75,6.09,23.48,16.6,11.8-.86,23.63-1.15,35.38-.81,14.12,.41,27.71,1.72,40.64,3.89-10.45-8.76-22.08-14.46-34.76-16.57,.92,.15,1.84,.31,2.75,.47,12.45,2.19,23.89,7.86,34.17,16.48,.3,.05,.6,.11,.9,.17l-.96,1.32c-.39-.35-.78-.71-1.18-1.06-23.96-4-49.79-4.98-76.31-3.03,8,11.15,15.78,27.3,23.03,47.45,13.61-1.02,26.94-1.33,39.89-.98l-.69,1.53c-12.61-.3-25.52,.02-38.66,.99,7.27,20.5,13.99,45.03,19.83,72.57,3.63-.27,7.24-.48,10.84-.65l2.73,2.01c-4.34,.19-8.71,.43-13.12,.77,5.67,27.11,10.49,57.08,14.15,88.95,9.2-.68,18.32-1,27.32-.97l.57,2.4c-9.19-.05-18.41,.27-27.61,.94,.82,7.28,1.57,14.65,2.27,22.11l-2.44-.13c-.69-7.35-1.43-14.62-2.24-21.78-27.08,2.16-54.04,7.36-79.86,15.07,2.2,7.4,4.43,14.89,6.71,22.45l-2.02,.84-.12,.52c-2.34-7.78-4.64-15.49-6.9-23.1-26.29,8.03-51.35,18.68-74.11,31.39,6.75,13.49,14,27.16,21.76,40.89,8.14,14.41,16.5,28.31,24.98,41.62,12.08-6.73,25.05-12.68,38.6-17.71l-2.23,3.38c-12.03,4.63-23.79,10.08-35.07,16.36,2.42,3.78,4.86,7.51,7.3,11.2l-2.85,.02c-2.19-3.31-4.37-6.66-6.54-10.04-5.75,3.27-11.2,6.68-16.38,10.2l-4.3,.03c6.14-4.31,12.61-8.4,19.37-12.25-8.48-13.31-16.84-27.21-24.97-41.61-7.76-13.74-15.02-27.4-21.76-40.9-22.5,12.77-42.68,27.57-59.47,43.85,11.38,15.78,24.13,31.41,38.15,46.63l-3.29-.46c-13.32-14.61-25.46-29.58-36.36-44.7-16.03,15.83-28.87,33.02-37.55,51.12,3.38,3.55,6.88,7.04,10.48,10.49l-1.65,.75c-3.28-3.17-6.48-6.38-9.58-9.62-.26,.55-.52,1.1-.77,1.65-2.3,5.12-4.21,10.21-5.75,15.27l-2.4,1.09c1.83-6.54,4.27-13.12,7.32-19.69-20.54-21.83-37.03-45.36-48.82-69.47-9.06,19.4-13.62,39.31-12.84,59.02,.01,.26,.03,.52,.04,.78,8.69,16.45,19.89,31.79,33.2,45.76l-.73,.71c-12.95-13.75-23.87-28.8-32.39-44.92,.93,14.98,5,29.29,12.13,42.56-.49-.91-.98-1.83-1.46-2.75-6.98-13.35-10.77-27.36-11.66-41.7Zm101.04-42.98c-18.18-25.48-32.81-51.33-43.58-76.45-18.62,18.34-33.27,38.05-43.01,58.34,11.79,24.12,28.28,47.65,48.83,69.49,8.38-17.48,21.03-34.87,37.76-51.38Zm5.34-202.68c-26.22,14.88-49.18,31.92-68.07,50.27,2.42,22.65,9.15,47.2,19.82,72.54,18.79-18.27,41.68-35.31,68.03-50.26-9.36-26.46-16.03-50.99-19.78-72.56Zm21.86,71.38c19.23-10.75,40.27-20.38,62.88-28.56,7.32-2.65,14.66-5.08,22.01-7.32-7.67-27.22-14.37-51.75-19.81-72.57-7.35,2.24-14.69,4.68-22.01,7.33-22.48,8.13-43.53,17.77-62.85,28.58,3.76,21.57,10.43,46.1,19.78,72.55Zm34.07,85.75c-14.23-28.66-26.11-56.5-35.42-82.53-25.99,14.77-48.95,31.76-67.93,50.17,10.76,25.12,25.4,50.96,43.58,76.44,13.63-13.22,29.89-25.85,48.67-37.5,3.65-2.26,7.35-4.45,11.1-6.58Zm76.58-32.74c-9.16-30.87-17.63-60.12-25.17-86.84-30.52,9.27-59.07,21.48-84.74,35.86,9.31,26.04,21.19,53.88,35.42,82.54,23.52-13.17,48.72-23.71,74.49-31.57Zm68.48-104.78c-14.2,1.15-28.74,3.05-43.53,5.76-16.34,3-32.3,6.85-47.77,11.46,7.54,26.72,16.02,55.98,25.18,86.85,26.59-7.92,53.75-12.99,80.28-15.12-3.66-31.88-8.48-61.85-14.15-88.95Zm-20.28-74.7c-29.79,2.38-60.64,8.08-91.41,17.3,5.44,20.83,12.13,45.35,19.81,72.57,30.78-9.22,61.64-14.92,91.43-17.3-5.84-27.55-12.56-52.07-19.83-72.57Zm-23.57-48.99c-26.54,2.13-53.72,7.2-80.33,15.13,2.6,12.16,6.71,29,12.06,49.54,15.47-4.61,31.43-8.46,47.77-11.46,14.73-2.7,29.27-4.61,43.52-5.76-7.25-20.15-15.03-36.3-23.02-47.45Zm-80.52,14.22c25.83-7.72,52.79-12.91,79.88-15.08-7.77-10.56-15.73-16.41-23.59-16.61-19.79,1.62-39.77,5.42-59.13,11.18-.64,1.8,.39,8.94,2.84,20.51Zm-76.5,32.13c22.77-12.72,47.85-23.38,74.16-31.42-2.45-11.58-3.48-18.73-2.83-20.51-19.13,5.86-37.6,13.62-54.61,23.07-8.7,5.12-14.2,15.06-16.72,28.86Zm1.69,54.89c25.67-14.38,54.21-26.58,84.72-35.85-5.35-20.54-9.46-37.39-12.06-49.55-25.79,7.86-51,18.41-74.53,31.59-2.41,14.29-1.71,32.58,1.87,53.82Zm-70.03,51.36c18.98-18.41,41.95-35.41,67.95-50.18-3.58-21.24-4.28-39.53-1.87-53.82-3.73,2.12-7.42,4.31-11.06,6.56-18.47,11.45-34.83,24.12-48.71,37.59-6.49,17.35-8.49,37.66-6.32,59.86Zm-44.53,59.85c9.74-20.3,24.4-40.03,43.03-58.39-2.17-22.2-.17-42.51,6.32-59.86-16.33,16.13-29.08,33.39-37.61,51.07-9.26,21.2-12.99,43.92-11.74,67.17Zm19.97,74.37c9.68-20.12,24.26-39.91,43.05-58.47-10.67-25.34-17.4-49.9-19.82-72.55-18.74,18.49-33.37,38.29-43.08,58.54,1.56,23.99,8.39,48.51,19.85,72.48ZM283.54,38.81c-2.03-.02-4.07,0-6.1,.02,2.03-.02,4.07-.04,6.1-.02Z"></path>
    <ellipse class="cls-19" cx="280.34" cy="317.77" rx="279.31" ry="278.83" transform="translate(-73.78 85.04) rotate(-15.27)"></ellipse>
    <path class="cls-17" d="M19.06,387.93c1.48,23.87,7.24,46.52,17.17,67.24-1.34-2.17-2.61-4.37-3.8-6.62l-.07-.13-.62,.32s.05,.09,.07,.13c.46,.88,.92,1.75,1.39,2.62,2.02,3.76,4.27,7.41,6.73,10.95,.56,1.03,1.14,2.06,1.72,3.08l1.03-1c-.78-1.03-1.55-2.06-2.3-3.11-11.35-21.66-17.95-45.6-19.65-71.11,11.64,15.99,27.79,29.64,47.76,40.55,.28,2.86,.62,5.69,.99,8.49l2.08-.94c-.26-2.08-.51-4.16-.72-6.26,2.25,1.19,4.56,2.34,6.91,3.46l3.13-1.42c-3.54-1.62-6.98-3.31-10.32-5.09-2.4-26.95-.7-55.65,4.93-84.89,18.32,9.72,39.52,16.57,62.53,20.61-.8,16.42-.83,32.51-.09,48.11l2.89-.37c-.71-15.37-.67-31.18,.11-47.26,15.9,2.62,32.62,3.92,49.81,3.92,8.52,0,17.15-.32,25.85-.96,1.85,16.07,4,31.77,6.43,46.95l3.14-.02c-2.45-15.26-4.62-31.01-6.47-47.17,12.85-1.04,25.86-2.78,38.87-5.18l-1.96-2.74c-12.33,2.25-24.77,3.92-37.25,4.93-1.5-13.42-2.79-27.11-3.86-40.99-1.39-18.05-2.33-35.72-2.86-52.89,19.86-1.64,39.61-5.46,58.53-11.09,4.38,14.12,8.81,28.59,13.27,43.27l2.92-1.21c-4.43-14.59-8.83-28.95-13.18-42.98,19.25-5.94,37.61-13.75,54.31-23.03,8.48,13.33,16.78,27.15,24.81,41.38,1.79,3.16,3.54,6.32,5.27,9.47l2.14-2.5c-1.56-2.83-3.13-5.66-4.73-8.49-8.03-14.22-16.33-28.05-24.81-41.38,9.41-5.37,18.24-11.23,26.41-17.47l-1.42-2.8c-8.12,6.27-17.02,12.21-26.63,17.7-16.85-26.28-34.39-50.55-51.99-71.98,8.34-4.83,15.84-10.37,22.22-16.46,12.33,7.82,24.6,16.48,36.69,25.91l.52-3.15c-11.57-8.96-23.32-17.24-35.17-24.76,.47-.47,.95-.94,1.4-1.42,5.41-5.71,9.63-11.62,12.6-17.55,7.85,2.49,15.68,5.26,23.47,8.28v-2.66c-7.43-2.88-14.89-5.52-22.38-7.91,2.9-6.51,4.31-13.03,4.14-19.37,9.34,.86,18.57,2.09,27.68,3.68l.94-2.09c-9.45-1.68-19.04-2.97-28.75-3.85-.19-2.22-.58-4.42-1.17-6.59-1.04-3.82-2.68-7.41-4.86-10.74,12.77-1.28,25.51-1.69,38.13-1.22,.88,.03,1.75,.09,2.62,.13l.3-1.91c-1.26-.07-2.52-.14-3.79-.19-12.78-.48-25.68-.05-38.62,1.27-3.83-5.16-9.03-9.65-15.48-13.33,23.46-7.41,46.31-10.02,67.77-7.81l.98-1.35c-3.24-1.71-6.62-3.32-10.13-4.81-8.96-3.79-18.62-6.8-28.9-9.02,.44,.06-6.24-1.6-9.02-1.72-11.08-1.85-21.71-2.5-34.07-2.62-2.17-.02-8.74,.39-8.74,.39,.44,0,.88-.01,1.31-.02,12.53-.16,24.54,.6,35.86,2.22-14.51,.57-29.32,5.69-43.98,15.08-8.92-1.43-18.43-1.8-28.23-1.16,5.8-9.44,12.65-14.88,19.84-15.46,0,0-1.95-.49-2.79-.42-7.41,.6-14.23,6.07-20.3,16.12-9.03,.8-18.27,2.45-27.49,4.97-.87,.24-1.73,.48-2.59,.73-5-11.67-6.13-11.35-6.72-11.17-.78,.23-1.57,.47-2.35,.71l.2,.67c.31-.05,1.55,.72,5.83,10.71-10.04,3.14-19.39,7.14-27.82,11.78-13.03-4.69-24.11-4.75-32.74,.08-.56,.31-1.11,.62-1.66,.94h0s-.04,.02-.06,.03c-.01,0-.03,.02-.04,.02,0,0,0,0-.01,0-.01,0-.03,.02-.04,.02-.05,.03-.1,.06-.16,.09-.09,.05-.18,.1-.27,.15h0c-2.02,1.15-4.04,2.33-6.02,3.53-14.62,8.81-27.55,18.67-38.46,29.19-4.29,2.84-8.29,6.05-11.98,9.62-.69,.67-1.39,1.35-2.07,2.03l.25,.25,.25,.25c2.84-2.81,5.91-5.37,9.15-7.74-10.71,11.08-19.18,22.83-25.03,34.82-17.24,13.95-30.87,30.89-40.26,50.44-.5,1.04-.99,2.07-1.47,3.11l.63,.3s.04-.09,.06-.14c9.11-19.52,22.48-36.54,39.58-50.61-.47,1.05-.93,2.1-1.36,3.15-4.81,11.78-6.99,23.32-6.55,34.36-19.26,19.98-34.02,42-43.88,65.26-.41-15.63,3.11-31.98,10.59-48.64l-.32-.14-.32-.14c-.47,1.05-.93,2.1-1.39,3.15-7.15,16.45-10.45,33.02-9.83,48.86C3.71,279.91-.81,304.85,.12,330.19h-.02s0,0,0,.01c.02,.49,.04,.98,.07,1.46,0,.08,0,.17,0,.25,0,.16,.02,.31,.03,.47,.01,.3,.03,.61,.04,.91,.01,.21,.03,.42,.04,.63,.03,.65,.06,1.29,.1,1.94h.02c1.07,14.14,4.94,27.69,11.54,40.3,2.12,4.05,4.5,7.96,7.12,11.76Zm49.15,39.85c-8.53-4.7-16.41-9.88-23.5-15.55-9.57-7.66-17.64-16.09-24.16-25.17-.75-15.01,.16-30.54,2.8-46.45,1.83-11.05,4.51-22.18,7.98-33.27,6.89,9.43,15.64,18.06,26.06,25.63,4.95,3.59,10.22,6.91,15.75,9.96-5.59,29.01-7.31,57.64-4.94,84.85Zm5.54-87.84c-17.36-9.63-31.47-21.69-41.48-35.48,7.73-23.75,19.09-47.29,33.64-69.46,1.99-3.03,4.04-6.01,6.13-8.97,7.5,10.19,17.99,19.09,30.84,26.24-13.45,28.86-23.23,58.44-29.12,87.67ZM228.61,128.1c4.55,13.39,9.4,27.99,14.48,43.55-.81,.24-1.63,.47-2.45,.69-8.99,2.46-17.9,4.03-26.52,4.79,1.74-25.05,4.56-47.61,8.35-66.86,1.89,5.43,3.93,11.35,6.13,17.83Zm-3.07-18.62c9.77,8.67,19.91,18.73,30.23,30.05,5.75,6.31,11.5,12.93,17.24,19.84-8.16,4.48-17.19,8.33-26.89,11.36-5.13-15.7-10.02-30.43-14.61-43.92-2.08-6.12-4.07-11.9-5.96-17.34Zm-8.79,15.75c-2.54,16-4.46,33.5-5.76,52.15-9.65,.64-18.89,.24-27.41-1.1,10.58-24.57,22.64-46.56,35.68-65.29-.89,4.55-1.72,9.29-2.51,14.23Zm-7.33,143c-6.23,.44-12.41,.67-18.5,.67-12.53,0-24.71-.95-36.28-2.83,7.14-31.33,16.59-60.63,27.75-87.03,6.15,.98,12.57,1.48,19.19,1.48,3.04,0,6.11-.11,9.22-.32-1.79,27.29-2.26,56.98-1.37,88.02Zm-55.7-98.69c-14.64,18.51-27.98,38.77-39.68,60.47-3.47,6.43-6.74,12.91-9.84,19.43-6.12-3.4-11.77-7.24-16.85-11.53-5.28-4.46-9.79-9.27-13.53-14.38,17.91-24.9,39.44-47.46,64.26-67.34,3.87,5.18,9.14,9.67,15.64,13.36Zm-19.22-27.55c-.58-2.11-.94-4.25-1.12-6.41,3.67-1.87,7.37-3.68,11.14-5.41,21.49-9.87,44.1-17.4,67.61-22.53-20.23,9.31-39.93,20.71-58.73,34.11-4.83,3.44-9.54,6.99-14.16,10.63-2.12-3.2-3.73-6.67-4.75-10.39Zm-18.21,89.23c11.7-21.7,25.04-41.96,39.68-60.46,4.34,2.23,9.17,4.13,14.46,5.65,2.91,.84,5.92,1.53,9,2.11-11.3,26.78-20.65,56.13-27.67,87.06-16.69-2.97-32.04-7.94-45.29-14.92,3.09-6.52,6.35-13.01,9.82-19.44Zm64.32-55.45c-8.42-1.57-16.09-4.1-22.68-7.48,17.78-22.11,37.45-41.61,58.39-57.91-13.31,19.14-25.31,41.19-35.71,65.4Zm-24.94-8.69c-6.2-3.5-11.33-7.82-15.12-12.87,4.61-3.63,9.33-7.18,14.16-10.62,18.91-13.48,38.73-24.94,59.07-34.26-20.84,16.29-40.41,35.73-58.11,57.76Zm5.62-59.88c-7.82,1.36-15.4,3.05-22.72,5.04,3.21-6.27,7.8-12.4,13.55-18.17,1.64-.04,3.29-.07,4.96-.06,17.72,.12,36.69,3.26,56.33,9.08-17.81-.17-35.27,1.17-52.12,4.11Zm50.26-1.7c-27.73,6.07-54.08,15.4-78.29,27.69-.1-6.11,1.34-12.33,4.1-18.45,23.14-6.39,48.18-9.44,74.19-9.24Zm-74.79,48.84c-24.91,19.97-46.56,42.69-64.3,67.27-6.95-10.15-10.89-21.43-11.68-33.49,19.54-19.87,43.32-37.28,69.85-51.13,.19,2.17,.57,4.31,1.15,6.44,1.06,3.88,2.74,7.53,4.98,10.92Zm1.43,207.46c-18.88-3.32-36.25-8.51-51.89-15.56-3.52-1.58-6.92-3.27-10.22-5.03,5.86-29.16,15.61-58.8,29.05-87.71,3.26,1.73,6.66,3.35,10.2,4.85,10.92,4.62,22.86,8.07,35.72,10.36-2,9.06-3.81,18.24-5.41,27.54-3.81,22.16-6.28,44.12-7.45,65.55Zm78.06,3.46c-8.46,.61-16.92,.94-25.36,.94-3.21,0-6.43-.05-9.63-.14-14.04-.4-27.43-1.67-40.16-3.76,1.16-21.53,3.62-43.52,7.41-65.56,1.6-9.33,3.41-18.51,5.42-27.52,10.88,1.77,22.4,2.72,34.5,2.84,.81,0,1.61,.01,2.42,.01,6.22,0,12.44-.23,18.66-.68,.54,17.29,1.49,34.97,2.87,52.89,1.07,13.86,2.36,27.55,3.87,40.98Zm-3.71-97.25c-.88-31.48-.36-61.15,1.4-88.04,9.01-.8,18.23-2.43,27.44-4.95,.87-.24,1.72-.49,2.58-.74,8.29,25.44,17.17,53.4,26.31,82.88-19.16,5.66-38.68,9.29-57.72,10.86Zm114.31-34.45c-17,9.45-35.1,17.02-53.57,22.69-9.15-29.47-18.02-57.43-26.31-82.87,9.94-3.1,19.32-7.07,27.87-11.77,17.7,21.52,35.21,45.76,52.01,71.96Zm-51.13-75.7c-12.96-15.62-25.94-29.69-38.69-41.85-2.93-2.79-5.81-5.45-8.66-7.99,22.56,8.11,45.78,19.58,68.82,33.98-6.06,5.76-13.3,11.12-21.47,15.86Zm23.53-17.87c-22.66-14.16-45.64-25.55-68.25-33.74,26.85,1.84,54.43,7.02,81.77,15.45-3.18,6.3-7.76,12.48-13.52,18.29Zm14.62-20.61c-27.19-8.45-54.59-13.66-81.4-15.52,11.48-1.8,23.15-3.07,35-3.75,17.02-.99,33.88-.77,50.42,.6,.16,6.18-1.25,12.48-4.02,18.68Zm2.79-27.1c.56,2.03,.92,4.09,1.1,6.17-16.54-1.36-33.4-1.58-50.42-.59-12.01,.7-23.87,1.99-35.53,3.84,26.26-10.27,53.19-17,80-19.96,2.18,3.24,3.82,6.77,4.85,10.55Zm-6.23-12.47c-26.62,2.98-53.36,9.67-79.44,19.83,9.02-6.21,18.25-11.84,27.64-16.82,12.28-6.52,24.51-11.78,36.59-15.78,6.22,3.47,11.39,7.76,15.21,12.78Zm9.2-37.34c16.28,2.9,31.03,7.67,43.74,14.18-21.49-2.08-44.35,.66-67.81,8.15-4.34-2.24-9.18-4.14-14.48-5.66-2.79-.8-5.67-1.47-8.61-2.04,15.54-9.82,31.46-14.97,47.16-14.62Zm-49.29,15.98c8.29,1.53,15.85,3.98,22.39,7.26-11.91,3.99-23.96,9.19-36.06,15.61-9.57,5.08-18.98,10.84-28.17,17.19,13.28-16.92,27.38-30.51,41.84-40.06Zm-30.4-1.55c9.51-.64,18.62-.29,27.05,.99-14.3,9.57-28.43,23.19-41.97,40.63,4.11-17.49,9.13-31.61,14.92-41.62Zm-29.43,5.02c8.88-2.42,17.67-3.99,26.18-4.76-5.69,9.98-10.7,24.03-14.85,41.8-4.07-11.46-7.62-21.06-10.63-28.69-1.17-2.98-2.2-5.5-3.11-7.68,.8-.23,1.6-.46,2.41-.68Zm-5.43,1.59c3,7.12,7.38,18.42,13.73,36.31-14.76-12.08-28.3-20.5-40.26-25.15,8.06-4.39,16.97-8.18,26.53-11.16Zm10.72,37.7c-22.13-6.64-42.75-9.76-61.34-9.39,6.01-5.63,13.14-10.87,21.17-15.51,11.94,4.56,25.55,13.03,40.17,24.9Zm-73.64-25.35c7.25-4.07,16.38-4.63,27.13-1.66,1.47,.41,2.96,.88,4.48,1.42-8.35,4.87-15.74,10.38-21.94,16.29-19.3,.73-36.35,5.29-50.54,13.6,11.55-10.75,25.28-20.78,40.87-29.65Zm-44.98,33.59c14.38-9.17,32.12-14.36,52.34-15.27-5.89,6-10.57,12.37-13.81,18.87-25.06,7.16-47.01,17.97-65.15,32,6.22-12.27,15.21-24.29,26.62-35.61Zm-36.23,67.35c.89-9.51,3.65-19.12,8.08-28.61,14.64-11.53,31.86-20.98,51.39-28.08,4.62-1.68,9.34-3.2,14.13-4.59-2.79,6.34-4.21,12.77-4.06,19.1-20.54,10.69-39.51,23.51-56.4,38.31-4.69,4.11-9.17,8.32-13.44,12.64-.08-2.88,.02-5.8,.29-8.76Zm-8.46,20.16c1.97-2.22,4.02-4.4,6.09-6.57,.89,11.61,4.71,22.64,11.44,32.76,.21,.32,.45,.64,.67,.96-17.4,24.6-30.9,51.01-39.84,78.36-.8-1.16-1.57-2.33-2.31-3.51-8.28-13.2-12.89-27.49-13.83-42.47,8.75-21.12,21.44-41.12,37.79-59.53ZM12.48,262.04c.32-.84,.65-1.67,.98-2.51,.43,5.84,1.4,11.57,2.92,17.14,2.76,10.1,7.34,19.72,13.54,28.65-.21,.66-.43,1.33-.63,1.99-8.11,26.51-11.53,52.58-10.39,77.39-10.63-15.64-16.73-33.12-17.96-51.81-1.04-24,2.82-47.82,11.54-70.85Z"></path>
    <ellipse class="cls-13" cx="280.34" cy="317.77" rx="279.31" ry="278.83" transform="translate(-73.78 85.04) rotate(-15.27)"></ellipse>
  </g>
  <g id="Layer_8" data-name="Layer 8">
    <path class="cls-16" d="M115.76,392.55c-.52-6.51-.23-12.96,1.51-19.29,1.29-4.7,3.32-9.03,6.14-12.99,.53-.75,1.17-1.22,2.09-1.24,1.1-.03,2.2,.84,2.59,2.06,.35,1.08,.69,2.17,.97,3.27,1.17,4.55,2.9,8.91,4.67,13.25,2.8,6.88,5.88,13.65,8.14,20.74,1.09,3.44,1.94,6.94,2.46,10.5,.42,2.87,.56,5.76,.52,8.65l-25.07-2.15c-1.82-7.51-3.4-15.07-4.02-22.79Zm74.61,28.85c-1.97-3.9-3.99-7.77-5.92-11.68-2.35-4.76-4.51-9.59-6.31-14.59-.34-.93-.66-1.88-.95-2.83-.33-1.11-.97-1.89-2.16-1.92-1.2-.03-2.22,.4-2.8,1.56-.47,.93-.92,1.86-1.36,2.8-3.58,7.7-5.88,15.75-6.24,24.29,0,.05,0,.1,0,.15l25.74,2.21Zm-139.86,16.45c3.05,2.77,6.42,5.04,10.04,6.91l37.13-24.06c-2.84,.18-5.68,.5-8.51,.8-6.44,.69-12.87,1.51-19.34,2.03-8.27,.66-16.53,.66-24.75-.7-1.95-.32-2.7,.1-3.59,1.9,.17,.74,.34,1.48,.5,2.22,2.21,4.13,5.05,7.75,8.51,10.9Zm3.26-72.09c1.85,5.75,4.34,11.2,7.58,16.3,4.14,6.52,9.32,12,15.84,16.17,5.77,3.7,12.09,5.92,18.77,7.14,1.17,.21,1.93,.69,2.53,1.74,1.81,3.18,3.77,6.27,5.86,9.27l3.21-2.08,10.36,.89c-6.12-7.62-11.4-15.81-16.08-24.4-.79-1.45-.74-3.03-.93-4.55-.79-6.45-1.92-12.84-3.65-19.09-1.9-6.87-4.48-13.48-8.65-19.35-3.26-4.58-7.25-8.46-11.51-12.08-4.43-3.76-9.07-7.27-13.43-11.1-3.09-2.72-6.04-5.58-8.58-8.84-.67-.86-1.47-1.45-2.53-1.66-.37,.08-.73,.17-1.1,.25-.98,.7-1.47,1.69-1.62,2.87-.07,.52-.16,1.03-.22,1.54-.64,5.08-.88,10.17-.83,15.29,.07,7.21,.86,14.35,2.2,21.43,.66,3.49,1.7,6.88,2.79,10.27Z"></path>
    <path class="cls-14" d="M121.76,386.55c-.52-6.51-.23-12.96,1.51-19.29,1.29-4.7,3.32-9.03,6.14-12.99,.53-.75,1.17-1.22,2.09-1.24,1.1-.03,2.2,.84,2.59,2.06,.35,1.08,.69,2.17,.97,3.27,1.17,4.55,2.9,8.91,4.67,13.25,2.8,6.88,5.88,13.65,8.14,20.74,1.09,3.44,1.94,6.94,2.46,10.5,.42,2.87,.56,5.76,.52,8.65l-25.07-2.15c-1.82-7.51-3.4-15.07-4.02-22.79Zm74.61,28.85c-1.97-3.9-3.99-7.77-5.92-11.68-2.35-4.76-4.51-9.59-6.31-14.59-.34-.93-.66-1.88-.95-2.83-.33-1.11-.97-1.89-2.16-1.92-1.2-.03-2.22,.4-2.8,1.56-.47,.93-.92,1.86-1.36,2.8-3.58,7.7-5.88,15.75-6.24,24.29,0,.05,0,.1,0,.15l25.74,2.21Zm-139.86,16.45c3.05,2.77,6.42,5.04,10.04,6.91l37.13-24.06c-2.84,.18-5.68,.5-8.51,.8-6.44,.69-12.87,1.51-19.34,2.03-8.27,.66-16.53,.66-24.75-.7-1.95-.32-2.7,.1-3.59,1.9,.17,.74,.34,1.48,.5,2.22,2.21,4.13,5.05,7.75,8.51,10.9Zm3.26-72.09c1.85,5.75,4.34,11.2,7.58,16.3,4.14,6.52,9.32,12,15.84,16.17,5.77,3.7,12.09,5.92,18.77,7.14,1.17,.21,1.93,.69,2.53,1.74,1.81,3.18,3.77,6.27,5.86,9.27l3.21-2.08,10.36,.89c-6.12-7.62-11.4-15.81-16.08-24.4-.79-1.45-.74-3.03-.93-4.55-.79-6.45-1.92-12.84-3.65-19.09-1.9-6.87-4.48-13.48-8.65-19.35-3.26-4.58-7.25-8.46-11.51-12.08-4.43-3.76-9.07-7.27-13.43-11.1-3.09-2.72-6.04-5.58-8.58-8.84-.67-.86-1.47-1.45-2.53-1.66-.37,.08-.73,.17-1.1,.25-.98,.7-1.47,1.69-1.62,2.87-.07,.52-.16,1.03-.22,1.54-.64,5.08-.88,10.17-.83,15.29,.07,7.21,.86,14.35,2.2,21.43,.66,3.49,1.7,6.88,2.79,10.27Z"></path>
    <path class="cls-8" d="M56.67,309.14c.22-.29,.47-.55,.79-.78,.37-.08,.73-.17,1.1-.25,1.07,.21,1.86,.8,2.53,1.66,2.54,3.25,5.49,6.12,8.58,8.84,4.36,3.84,9,7.35,13.43,11.1,4.26,3.62,8.25,7.5,11.51,12.08,4.17,5.87,6.75,12.47,8.65,19.35,1.73,6.26,2.85,12.65,3.65,19.09,.19,1.52,.14,3.1,.93,4.55,4.52,8.31,9.62,16.23,15.48,23.63,.06,.24,.12,.49,.17,.73l-2.55-.22c-5.7-7.26-10.67-15.02-15.1-23.15-.79-1.45-.74-3.03-.93-4.55-.79-6.45-1.92-12.84-3.65-19.09-1.9-6.87-4.48-13.48-8.65-19.35-3.26-4.58-7.25-8.46-11.51-12.08-4.43-3.76-9.07-7.27-13.43-11.1-3.09-2.72-6.04-5.58-8.58-8.84-.65-.83-1.42-1.4-2.42-1.63Zm91.2,83.2c-2.26-7.1-5.34-13.86-8.14-20.74-1.77-4.34-3.49-8.7-4.67-13.25-.28-1.1-.62-2.19-.97-3.27-.39-1.22-1.5-2.09-2.59-2.06-.82,.02-1.4,.41-1.89,1.01,1.06,.03,2.11,.87,2.49,2.05,.35,1.08,.69,2.17,.97,3.27,1.17,4.55,2.9,8.91,4.67,13.25,2.8,6.88,5.88,13.65,8.14,20.74,1.09,3.44,1.94,6.94,2.46,10.5,.36,2.49,.51,4.98,.52,7.48l2,.17c.05-2.89-.1-5.78-.52-8.65-.52-3.56-1.37-7.06-2.46-10.5Zm31.17-6.96c1.19,.03,1.83,.81,2.16,1.92,.28,.95,.61,1.89,.95,2.83,1.8,5,3.96,9.83,6.31,14.59,1.73,3.5,3.53,6.97,5.3,10.46l2.62,.23c-1.97-3.9-3.99-7.77-5.92-11.68-2.35-4.76-4.51-9.59-6.31-14.59-.34-.93-.66-1.88-.95-2.83-.33-1.11-.97-1.89-2.16-1.92-.98-.03-1.84,.27-2.44,1.01,.14-.01,.29-.01,.44-.01Zm-67.47,23.91l-1.35,.87c.05,.07,.09,.14,.14,.21l1.61-1.04-.4-.03Zm-35.73,8.24c-8.27,.66-16.53,.66-24.75-.7-1.51-.25-2.31-.04-3,.91,.3,0,.62,.03,1,.09,8.22,1.36,16.48,1.36,24.75,.7,6.46-.52,12.89-1.34,19.34-2.03,2.83-.3,5.67-.62,8.51-.8l-35.38,22.92c.08,.04,.16,.09,.25,.14l37.13-24.06c-2.84,.18-5.68,.5-8.51,.8-6.44,.69-12.87,1.51-19.34,2.03Z"></path>
  </g>
  <g id="Layer_2_copy" data-name="Layer 2 copy">
    <path class="cls-15" d="M353.04,47.84c-.09,.42-.18,.84-.25,1.26-6.94,2.76-12.92,7.3-17.09,13.02-5.47,7.5-7.4,16.59-5.55,25.85-2.89,3.89-7.39,10.92-6.43,20.15-6.67,5.07-11.04,12.21-12.41,20.37-1.27,7.6,.29,15.46,4.29,22.11-.01,.02-.02,.04-.03,.05-2.92,4.71-8.33,13.44-5.54,25.09,2.19,12.06,8.69,21.45,18.92,27.47-8.01,17.79-2.58,40.43,13.32,52.58,.17,.33,.35,.74,.53,1.19-8.21,4.99-14.06,11.47-17.5,19.38-12.49-6.11-27.52-7.75-39.38-3.96-9.77,3.12-17.03,9.51-21.14,18.56-5.32-.69-15.12-1.39-22.74,9.26-7.91,9.77-5.22,19.06-3.62,23.89-8.81,7.29-13.14,18.06-12.23,30.65,.79,11,5.65,22.09,12.66,30.17-6.69,5.07-11.41,12.06-13.94,20.72-.16,0-.32-.03-.46-.06l-.52-.76-1.27-.98c-14.72-11.33-38.76-11.41-52.92-.62-7.63-8.38-19.13-13.71-29.99-13.75h-.13c-8.76,0-16.77,3.38-22.94,9.62-13.3-4.86-30.85-.86-38.18,13.75-.43,.81-.77,1.4-1.04,1.82-4.79,.32-10.55,1.6-18.7,9.3-.09,0-.17-.02-.25-.03-2.58-.28-6.12-.66-10.02,.56-9.18,2.86-15.92,8.83-19.77,17.27,57.66,117.99,192.1,182.12,322.92,146.13,148.34-40.8,235.82-194.83,195.39-344.04-26.73-98.67-102.7-170.5-193.99-196.06Z"></path>
    <path class="cls-10" d="M261.71,380.41c-16.59-8.26-28.79-40.83-8.68-54.81,8.3-5.27-5.85-13.07,3.56-24.26,8.85-12.65,20.28,1.36,23.36-9.49,8.21-21.61,37.5-19.27,53.67-8.35,1.26,.76,2.4,1.77,3.87,2.23l1.56,.26c1.38-14.29,9.51-22.86,22.15-28.45,.96-2.71-2.17-12.22-4.7-14.1-14.14-10.03-18.52-30.65-8.91-45.18,2.1-3.15,2.43-4.68-1.76-6.42-10.3-4.27-16.91-11.9-18.89-23.18-3.52-13.77,10.55-21.02,6.05-25.84-8.22-10.4-6.2-25.3,5.61-32.85,2.28-1.46,3.3-3.26,2.67-5.83-1.6-6.51,1.37-11.61,5.1-16.4,1.18-1.51,1.98-2.54,1.35-4.76-4.48-15.95,7.12-27.08,19.04-30.57,2.72-.8,2.81-1.48,3-4.05,.06-.59,.14-1.19,.23-1.78,87.9,28.99,160.03,100.01,186.2,195.88,41.51,152.08-48.33,309.08-200.67,350.66-129.28,35.29-262.01-23.89-324.61-135.57,5.21-2.15,9.49-2.08,9.22-5.97,1.06-11.96,6.83-19.54,16.46-22.51,4.13-1.28,8.87,1.11,12.04-.62,15.83-16.44,16.61-1.74,24.13-16.01,5.41-10.81,19.38-12.39,28.16-8.1,3.07,1.5,4.89,1.07,6.83-1.32,12.19-14.98,32.82-7.91,41.9,3.41,4.97,6.21,4.75,6.26,10.77,.93,10.42-9.29,30.72-9.65,42.62-.56,3.9,5.71,15.91,5.08,17.53-1.86,2.97-11.78,10.23-19.13,23-22.75l-1.87-1.81Z"></path>
    <path class="cls-6" d="M363.21,259.54c-12.64,5.59-20.77,14.15-22.15,28.45l-1.56-.26c-1.46-.46-2.61-1.47-3.87-2.23-16.17-10.92-45.47-13.26-53.67,8.35-3.08,10.85-14.51-3.17-23.36,9.49-9.41,11.18,4.74,18.99-3.56,24.26-16.66,11.58-11.14,35.9,.68,48.61-13.14-11.98-20.25-38.4-2.68-50.61,8.3-5.27-5.85-13.07,3.56-24.26,8.85-12.65,20.28,1.36,23.36-9.49,8.21-21.61,37.5-19.27,53.67-8.35,1.26,.76,2.4,1.77,3.87,2.23l1.56,.26c1.38-14.29,9.51-22.86,22.15-28.45,.81-2.28-1.29-9.38-3.48-12.69,.26,.2,.52,.4,.78,.59,2.52,1.89,5.65,11.39,4.7,14.1Zm-99.73,122.56c-12.32,3.5-19.92,11.08-22.89,22.86-1.63,6.94-13.63,7.58-17.53,1.86-11.9-9.09-32.21-8.73-42.62,.56-3.83,3.39-5.14,4.59-6.86,3.42,3.13,3.73,3.74,3.11,8.86-1.42,10.42-9.29,30.72-9.65,42.62-.56,3.9,5.71,15.91,5.08,17.53-1.86,2.97-11.78,12.14-19.29,23.66-22.68l-2.78-2.18Zm-168.71,32.36c5.41-10.81,19.38-12.39,28.16-8.1,3.07,1.5,4.89,1.07,6.83-1.32,10.94-13.44,28.66-9.13,38.75,.08-9.57-10.52-29.05-16.46-40.75-2.08-1.95,2.39-3.76,2.82-6.83,1.32-8.79-4.3-22.76-2.71-28.16,8.1-7.53,14.27-8.31-.43-24.13,16.01-3.17,1.73-7.91-.66-12.04,.62-9.62,2.97-15.39,10.55-16.46,22.51,.27,3.89-4.01,3.82-9.22,5.97,.43,.77,.85,1.54,1.29,2.31,5.53-2.47,10.21-2.21,9.93-6.28,1.06-11.96,6.83-19.54,16.46-22.51,4.13-1.28,8.87,1.11,12.04-.62,15.83-16.44,16.61-1.74,24.13-16.01ZM368.76,54.43c2.72-.8,2.81-1.48,3-4.05,.1-1.01,.26-2.04,.46-3.06-.74-.25-1.49-.48-2.23-.73-.09,.6-.17,1.19-.23,1.78-.18,2.56-.27,3.25-3,4.05-11.92,3.49-23.52,14.62-19.04,30.57,.62,2.22-.18,3.25-1.35,4.76-3.72,4.79-6.7,9.88-5.1,16.4,.63,2.56-.38,4.37-2.67,5.83-11.81,7.54-13.83,22.45-5.61,32.85,4.51,4.82-9.57,12.07-6.05,25.84,1.26,7.17,4.4,12.86,9.16,17.16-3.64-4.02-6.09-9.05-7.16-15.16-3.52-13.77,10.55-21.02,6.05-25.84-8.22-10.4-6.2-25.3,5.61-32.85,2.28-1.46,3.3-3.26,2.67-5.83-1.6-6.51,1.37-11.61,5.1-16.4,1.18-1.51,1.98-2.54,1.35-4.76-4.48-15.95,7.12-27.08,19.04-30.57Zm-15.35,186.5c-9.95-10.88-12.14-28.06-3.8-40.66,1.87-2.8,2.32-4.32-.56-5.85,.25,1.02-.35,2.22-1.44,3.85-8.87,13.4-5.83,31.98,5.8,42.66Z"></path>
    <path class="cls-3" d="M392.33,55c-10.28,10.07-16.52,23.87-14.31,38.92,3.72,10.44-1.12,17.67-8.92,24.72-36.54,38.2,5.23,61.04-4.92,76.72-11.49,18.55-8.86,46.06,9.09,59.97,4.92,3.44,7.43,8.34,7.09,14.54-.74,9.26,3.84,17.82,8.71,25.3,10.43,17.42-20.18,22.08-28.04,9.86-13.66-18.28-39.08-25.52-56.18-7.31-2.08,2.15-4.66,4.19-7.84,3.55-14.96-3.01-30.41,6.78-31.51,22.83-.26,3.81-3.23,7.4-.8,11.44,6.71,13.35-12.33,24.24-2.54,41.22,.62,1.21,.78,2.56-.43,3.65,.31,.7,.63,1.39,.94,2.08,8.27,2.86,12.14,12.56,20.82,14.81,7.92,2.52,11.48,8.07,13.43,15.68,3.91,26.26-24.38,5.99-37.09,10.79-9,2.5-16.19,1.64-23.2-4.81-6.96-6.39-16.41-5.38-24.98-6.42-12.36-1.41-23.68,6.4-33.13,13.51-3.55,2.66-7.82,4.97-11.97,2.52-8.79-5.18-18.25-5.42-27.91-5.18-17.89,.12-29.3,14.4-38.99,27.49-5.98,7.84-17.34,3.52-25.49,5.97-15.91,4.34-23.58,13.17-28.62,24.07,67.12,96.37,190.03,144.95,309.97,112.21,152.34-41.58,242.18-198.58,200.67-350.66-23.92-87.61-86.21-154.47-163.85-187.47Z"></path>
    <path class="cls-9" d="M46.32,488.44c68.78,94,190.9,140.78,310.13,108.24,154.32-42.12,245.33-201.16,203.28-355.22-23.61-86.48-84.13-153-159.98-187.28-2.54,2.49-4.85,5.38-6.87,8.77-5.33,8.33-6.57,17.19-4.42,26.49,4.36,11.28-5.02,14.14-4.7,24.75-.24,2.71-1.2,4.01-3.43,5.45-12.42,8.01-19.62,19.04-18.95,34.35,.66,15.59,11.13,27,23.88,34.46,.94,.61,2.41,.86,2.2,2.4-.21,1.52-1.76,1.39-2.77,1.78-6.2,2.43-11.43,5.89-15.54,11.42-13.77,19.89,.95,46.6,21.11,54.68,2.18,.83,3.81,1.71,2.52,4.76-10.25,22.11,18.61,33.45,6.9,39.75-1.96,1.3-3.6,3.49-3.89,6.18l-15.21,6.8-20.18-4.72c-11.82-17.71-41.45-25.72-55.2-5.83-4.93,4.72-17.3-5.16-27.1,7.5-14.88,18.65-.79,28.2-5.57,33.58-16.01,17.49,.39,42.59,19.1,49.67l16.01,3.04,10.13,8.56-2.03,17.73c-1.69-2.39-9.96,0-14.41,1.74-4.55,1.8-6.56,5.47-8.44,8.34-1.74,2.65-2.8,2.92-5.46,1.55-10.24-4.78-24.38-7.74-34.2-.75-2.51,2.08-3.37,2-5.79-.58-16.68-22.43-60.39-25.03-65.99,7.93,.66,4.23-2.47,5.1-4.74,1.76-18.09-21.28-58.23-22.18-67.34,7.9-2.1,6.47-13.3,4.47-18.38,12.61-2.37,2.9-5.09,1.16-7.42,.81-17.24-2.69-30.37,7.37-37.24,21.4Z"></path>
    <path class="cls-7" d="M356.86,307.04c-13.83-12.86-37.71-16.62-49.64,.63-4.93,4.72-17.3-5.16-27.1,7.5-14.88,18.65-.79,28.2-5.57,33.58-11.24,12.27-6.5,28.29,3.78,39.2-11.65-10.88-17.76-28.17-5.81-41.22,4.79-5.38-9.3-14.93,5.57-33.58,9.79-12.66,22.16-2.78,27.1-7.5,12.54-18.13,38.27-13.07,51.67,1.39Zm-175.41,136.92c.5,3.23-1.2,4.49-3.05,3.43,.11,.12,.22,.24,.33,.36,2.28,3.33,5.4,2.47,4.74-1.76,5.15-30.29,42.48-30.53,61.44-12.95-18.18-19.58-58.13-20.49-63.47,10.92Zm-95.85,25.1c2.32,.34,5.04,2.09,7.42-.81,5.08-8.14,16.28-6.14,18.38-12.61,8.6-28.39,44.82-29.17,64.07-11.29-18.62-19.93-57.19-20.16-66.1,9.26-2.1,6.47-13.3,4.47-18.38,12.61-2.37,2.9-5.09,1.16-7.42,.81-17.24-2.69-30.37,7.37-37.24,21.4,.6,.82,1.2,1.66,1.81,2.48,6.81-14.27,20.04-24.57,37.46-21.85Zm209.31-31.22c1.88-2.87,3.89-6.53,8.44-8.34,4.45-1.74,12.72-4.13,14.41-1.74l2.03-17.73-2.06-1.74-1.99,17.45c-1.69-2.39-9.96,0-14.41,1.74-4.55,1.8-6.56,5.47-8.44,8.34-1.74,2.65-2.8,2.92-5.46,1.55-10.24-4.78-24.38-7.74-34.2-.75-1.88,1.55-2.83,1.9-4.2,.9,.14,.18,.3,.36,.44,.54,2.42,2.58,3.28,2.66,5.79,.58,9.81-6.99,23.95-4.03,34.2,.75,2.65,1.37,3.72,1.1,5.46-1.55ZM392.88,62.95c-5.33,8.33-6.57,17.19-4.42,26.49,4.36,11.28-5.02,14.14-4.7,24.75-.24,2.71-1.2,4.01-3.43,5.45-12.42,8.01-19.62,19.04-18.95,34.35,.45,10.69,5.52,19.42,12.77,26.25-6.15-6.51-10.34-14.56-10.75-24.23-.67-15.31,6.53-26.34,18.95-34.35,2.23-1.44,3.2-2.74,3.43-5.45-.32-10.61,9.06-13.47,4.7-24.75-2.15-9.3-.9-18.17,4.42-26.49,2.22-3.73,4.79-6.87,7.63-9.51-.93-.43-1.85-.87-2.78-1.29-2.54,2.49-4.85,5.38-6.87,8.77Zm-6.18,131.7c1.02-.4,2.57-.26,2.77-1.78,.2-1.45-1.09-1.75-2.02-2.29,0,.09,.01,.17,0,.27-.21,1.52-1.76,1.39-2.77,1.78-6.2,2.43-11.43,5.89-15.54,11.42-10.54,15.23-4.38,34.44,8.13,46.24-11.12-11.89-16.06-29.84-6.11-44.22,4.11-5.52,9.34-8.98,15.54-11.42Zm-24.29,118.86l20.18,4.72,15.21-6.8c.29-2.69,1.94-4.88,3.89-6.18,11.71-6.3-17.16-17.64-6.9-39.75,1.11-2.61,.07-3.62-1.61-4.38,.12,.61,.01,1.37-.41,2.36-10.25,22.11,18.61,33.45,6.9,39.75-1.96,1.3-3.6,3.49-3.89,6.18l-15.21,6.8-19.5-4.56c.47,.61,.92,1.23,1.35,1.87Z"></path>
    <path class="cls-1" d="M201.05,468.89c-4.37,4.74-4.45,13.51-11.2,16.13-13.71,3.01-16.41,25.34-29.94,15.65-6.5-4.19-17.73-8.2-26.38-7.83-6.36-.23-8.88,.91-16.61,5.88-5.05,3.25-8.18,8.01-9.1,10.67-2.67,7.68-6.42,15.05-4.46,23.77,.8,6.57-.5,9.77-2.9,11.39,69.68,54.97,163.7,77.32,255.99,52.12,154.32-42.12,245.33-201.16,203.28-355.22-16.18-59.27-49.7-109.15-93.61-145.71-10.69,3.57-27.09,4.45-33.03,16.53-3.04,6.2-4.93,11.31-4.79,19.19-.49,9.49,5.29,21.15,11.56,25.79,13.93,9.69-10.43,16.94-9.82,28.08-1.69,11.12-14.38,15.78-19.24,25.56-9.91,17.02-10.01,33.82-.58,51.05,4.36,7.97,10.41,14.36,16.74,20.64,4.67,4.63,4.39,6.17,1.02,11.55-14.92,24.52,3.03,27.83-29.49,17.89l-2.71-2.62-15.21,6.8-20.18-4.72c-10.19,1.08-11.98,18.12-20.68,13.61-4.65-2.25-9.58-4.78-14.72-4.81-6.58-.04-11.41-2.35-19.83,2.52-4.86,2.81-10.22,6.86-13.11,12.31-7.31,13.76-2.67,27.44,7.56,38.43,6.41,6.87-6.45,14.83-6.97,23.89,3.71,1.01,7.42,2.03,11.13,3.04l5,4.28,4.09,19.98-10.52,3.77,.36,.42c-.34,.24-.66,.52-.96,.86,2.15,5.16,5.56,9.47,9.09,13.73,8.08,8.47-11.9,8.42-18.41,17.78-4.81,5.05-9.07,4.16-13.86,1.35-10.57-6.21-21.74-9.51-34.07-11.03-19.19-2.36-31.31,4.13-43.43,17.29Z"></path>
    <path class="cls-4" d="M170.87,520.3c-7.91,5.4-10.44-7.36-16.83-10.23-25.53-18.61-55.35,8.06-43.11,36.41,1.67,3.96,3.2,7.35,.26,10.77,69.02,48.48,158.39,66.99,246.2,43.02,156.33-42.67,248.52-203.78,205.92-359.84-15.58-57.08-47.05-105.57-88.34-142.04-19.48-.12-41.83,14.27-36.42,35.41,4.76,19.59,24.18,19.17,26.57,24.76l-.3,3.29,.96,24.96-27.63,10.85c-20.57,5.96-31.63,26.52-25.45,46.27,4.62,20.27,21.22,30.93,37.63,41.25-11.81,6.08-18.8,15.25-20.31,28.28l-.02,10.86-6.68,6.16-7.54-1.6c-.02-.33-.04-.66-.08-1.02-21.37-9.5-49.42-14.16-67.94,3.62-2.14,2.09-2.83,6.14-6.26,6.26-3.08,.11-4.31-3.53-6.65-5.16-6.83-4.77-14.42-7.34-22.62-5.59-13.39,2.86-20.48,22.87-12.46,33.93,3.26,6.05,15.89,10.05,9.79,17.94-13.82,20.56-2.73,47.7,13.02,63.67,.05,0,.11,0,.17-.01l.16,9.26-10.72,7.05h0c-23.18,3.98-20.54,29.39-27.02,21.62-23.27-25.8-79.55-34.27-86.61,10.17l-27.69,29.67Z"></path>
    <path class="cls-5" d="M284.36,479.58c-24.72-23.45-76.95-29.61-83.74,13.1l-27.69,29.67c-3.96,2.7-6.57,.85-8.99-2.03,1.9,1.49,4.06,1.94,6.94-.03l27.69-29.67c6.98-43.93,62.05-36.16,85.79-11.05ZM440.21,199.7l27.63-10.85-3.01-27.01,.96,24.96-27.63,10.85c-20.57,5.96-31.63,26.52-25.45,46.27,2.32,10.17,7.65,17.92,14.47,24.42-5.83-6.08-10.34-13.25-12.42-22.37-6.18-19.75,4.88-40.31,25.45-46.27ZM113.58,558.88c2.47-3.28,1-6.55-.6-10.36-12.24-28.34,17.58-55.02,43.11-36.41,.67,.3,1.3,.72,1.9,1.21-1.19-1.39-2.47-2.59-3.96-3.26-25.53-18.61-55.35,8.06-43.11,36.41,1.67,3.96,3.2,7.35,.26,10.77,.79,.55,1.59,1.09,2.39,1.64ZM477.31,100.44c-.77-.69-1.55-1.37-2.33-2.06-19.48-.12-41.83,14.27-36.42,35.41,1.49,6.12,4.4,10.29,7.79,13.29-2.49-2.79-4.56-6.4-5.73-11.24-5.43-21.24,17.15-35.67,36.7-35.41Zm-59.55,229.46c.04,.35,.06,.69,.08,1.02l7.54,1.6,6.68-6.16,.02-10.86c1.5-13.03,8.5-22.19,20.31-28.28-.9-.57-1.8-1.13-2.7-1.7-11.41,6.08-18.19,15.14-19.66,27.93l-.02,10.86-6.68,6.16-7.54-1.6c-.02-.33-.04-.66-.08-1.02-21.37-9.5-49.42-14.16-67.94,3.62-2.14,2.09-2.83,6.14-6.26,6.26-.88,.03-1.6-.25-2.25-.69,1.19,1.44,2.39,2.81,4.3,2.74,3.43-.12,4.12-4.17,6.26-6.26,18.52-17.78,46.57-13.12,67.94-3.62Zm-82.9,2.67c-6.83-4.77-14.42-7.34-22.62-5.59-13.39,2.86-20.48,22.87-12.46,33.93,.74,1.37,1.96,2.63,3.33,3.86-.5-.59-.94-1.19-1.28-1.81-8.01-11.06-.93-31.08,12.46-33.93,8.2-1.75,15.78,.82,22.61,5.58-.63-.76-1.28-1.51-2.04-2.05Zm-48.51,149c.29,.31,.59,.62,.87,.93,6.48,7.77,3.83-17.64,27.02-21.62h0s10.72-7.05,10.72-7.05l-.16-9.26c-.06,0-.12,.01-.17,.01-.64-.65-1.26-1.31-1.88-2l.15,9.19-10.72,7.05h0c-21.64,3.72-20.78,26.09-25.83,22.74Zm36.23-39.04s.07,0,.11,0c-14.69-16.17-24.32-41.91-11.08-61.61,3.39-4.39,.99-7.58-2.37-10.58,2.09,2.44,2.95,5.12,.32,8.53-13.82,20.56-2.73,47.7,13.02,63.67Z"></path>
    <path class="cls-2" d="M563.32,240.42c-13.4-49.1-38.56-91.84-71.6-126.05-12.54,11.06-17.53,24.01-13.98,37.22-4.25,.15-11.78,3.25-15.6,4.24,4.93,1.32,1.88,7.77,1.88,7.77-13.75,5.49-17.04,14.73-18.43,30.03-.23,2.52-13.09,4.36-12.86,6.77,1.09,11.18,6.06,20.64,15.72,26.68,.04,.03,.08,.05,.12,.08-.02,.01-.03,.03-.05,.04l-.11,.11c-6.07,5.86-8.4,13.86-6.56,22.55,2.35,11.06,11.25,21.91,21.69,26.84-3.99,8.21-4.08,18.51-.62,27.64-12.11-2.86-28.48-2.21-30.95,.61q-1.95,8.5-16.27,22.9s-6.31-2.72-6.34-2.59c-.1-.01-1.3,3.99-1.41,3.98-26.23-4.36-36.37,9.1-41.83,16.34-.62,.82-1.39,1.84-2.01,2.56-7.34-5.09-16.19-6.89-23.47-4.68-9.18,2.71-17.51,12.89-18.19,22.23-1.1,14.99,5.03,21.28,8.4,24.66-.66,.55-1.65,1.31-3.15,2.33l-.46,.35c-7.67,6.63-14.61,19.43-4.99,42.93-.85,.59-1.06,.82-3.26,1.94-.33,.17,4.03,6.01,4.03,6.01,0,0,10.01,7.42-19.13,17.69,.03,.7,.23,10.39,.25,11.01,.1,6.59,3.43,11.29,6.57,15.39-9.15-.7-19.21,.42-26.9,7.13-6.04-8.09-17.27-13.3-29.13-13.41-.12,0-.24,0-.36,0-9.74,0-18.02,3.52-23.06,9.75-9.72-6.61-20.61-9.36-30.97-8.14-5.21,12.09-2.48,21.39-7.8,24.78-10.72,6.83-24.59,16.87-28.73,12.18-.14,1.85-.65,7.45-.33,11.3-17.38,.54-32.7,11.73-38.15,28.17-2.96-2.96-6.44-5.3-10.31-6.98,0,.15,.02,.3,.02,.45,0,2.06-.42,4.03-1.16,5.82,68.65,47.12,156.86,64.87,243.57,41.2,156.33-42.67,248.52-203.78,205.92-359.84Z"></path>
    <path class="cls-5" d="M171.33,539.26c-18.56-2.29-35.8,9.16-40.15,27.5-.24,.98,.03,2.46-.72,3.25,65.99,39.02,147.14,52.34,227.02,30.53,156.48-42.71,248.77-203.98,206.13-360.2-12.66-46.38-35.79-87.11-66.16-120.32-9.95,8.7-16.65,20.2-11.9,34.07,1.32,3.21,.86,4.78-3.04,4.55-6.04-.36-19.07,4.61-20.65,5.41-24.27,9.54-31.83,46.12-8.37,60.69,4.93,3.34,4.88,4.46,.72,8.23-13.87,13.37,.46,36.38,16.04,42.03,1.36,.66,3.88,.62,1.72,3.24-7.34,10.9-4.5,26.95,4.16,36.43-15.91-4.59-30.24-8.72-45.94-1.22-5.48,4.11-9.03,10.14-14.33,14.42-.08,1.36,0,2.75-.26,4.07-.68,3.33-1.32,5.08-6.19,4.45-35.95-6.03-36.54,24.07-44.77,19-5.96-4.65-13.97-6.88-20.4-4.93-6.92,2.05-14,10.26-14.54,17.7-1.88,25.7,19.66,19.49,3.04,30.88-11.93,10.32-8.27,26.53-2.83,38.96,2.53,2.43-7.43,7.12-8.03,7.47-5.29,3.07-7.26,8.42-9.64,13.51-1.47,5.37-1.01,10.4-.85,15.77,.14,9.11,8.85,14.02,11.57,22.18-11.46-2.36-25.32-3.57-34.32,4.89-2.5,2.46-4.32,2.29-6.14-.33-9.23-14.13-36.54-17.42-46.1-3.35-1.37,1.43-2.54,2.51-4.24,1.09-31.14-23.22-68.58,2.66-60.83,40.05Z"></path>
  </g>
</svg>
